inDegrees=yes
name=ik_S47_A03_T02
DataType=double
version=3
OpenSimVersion=4.3-2021-08-27-4bc7ad9
endheader
time	pelvis_tilt	pelvis_list	pelvis_rotation	pelvis_tx	pelvis_ty	pelvis_tz	hip_flexion_r	hip_adduction_r	hip_rotation_r	knee_angle_r	knee_angle_r_beta	ankle_angle_r	subtalar_angle_r	mtp_angle_r	hip_flexion_l	hip_adduction_l	hip_rotation_l	knee_angle_l	knee_angle_l_beta	ankle_angle_l	subtalar_angle_l	mtp_angle_l	lumbar_extension	lumbar_bending	lumbar_rotation	arm_flex_r	arm_add_r	arm_rot_r	elbow_flex_r	pro_sup_r	wrist_flex_r	wrist_dev_r	arm_flex_l	arm_add_l	arm_rot_l	elbow_flex_l	pro_sup_l	wrist_flex_l	wrist_dev_l
10.55999999999986	-3.036990202552634	6.633288969209944	103.4143894124826	0	0.9399999999999999	0	14.8253066289058	-6.121002337006506	-9.166497319630411	15.76491243582062	0.275149628293669	0	0	0	-5.995912055493583	4.135518217868976	-2.014436989059506	-5.790601562089827	-0.1010650629295943	0	0	0	0	0	0	33.66809496863083	-33.66809496863094	4.52821232983796	78.85987109591633	85.47178792284727	0	0	33.66809496863083	-33.66809496863094	4.52821232983796	78.85987109591633	85.47178792275984	0	0
10.57999999999986	-3.358261144233596	6.179688354925962	103.6094151123385	0	0.9399999999999999	0	14.49779508773666	-5.908025278078802	-10.44843931487343	8.780999148745618	0.1532573467604303	0	0	0	-5.651496920628603	4.534491171942174	-1.81487977291688	-5.801091408135832	-0.1012481452811244	0	0	0	0	0	0	33.67554458371244	-33.67554458371254	4.528830861245036	78.86795399942039	85.47116939147141	0	0	33.67554458371244	-33.67554458371254	4.528830861245036	78.86795399942039	85.47116939138415	0	0
10.59999999999986	-3.840546743470141	5.69980705585295	103.8289312268976	0	0.9399999999999999	0	13.39396064224586	-5.575727459786669	-13.10425960222265	6.117016626097707	0.1067620805246399	0	0	0	-6.092206716086944	5.016836536522035	-1.77460264561015	-5.874502485104335	-0.1025294102816598	0	0	0	0	0	0	33.66802469452592	-33.668024694526	4.52837950588509	78.86208261334033	85.47162074680976	0	0	33.66802469452592	-33.668024694526	4.52837950588509	78.86208261334033	85.47162074672239	0	0
10.61999999999986	-4.420489259351186	5.245145400190435	104.1575304329431	0	0.9399999999999999	0	13.76542263184946	-6.125924220008836	-13.25705933185354	3.131310348051206	0.05465167547526315	0	0	0	-5.82186245619434	5.655410628658621	-1.430651425338702	-5.859939853686566	-0.1022752444156654	0	0	0	0	0	0	33.67285659445135	-33.67285659445142	4.528778435031918	78.86729540766802	85.47122181768317	0	0	33.67285659445135	-33.67285659445142	4.528778435031918	78.86729540766802	85.47122181759585	0	0
10.63999999999986	-4.991710417899012	4.729441548596618	104.5864461985019	0	0.9399999999999999	0	14.11582482222293	-6.493389806494778	-13.59751209595571	1.310458341771232	0.02287181277413313	0	0	0	-6.868851296354181	6.143403556050348	-1.194158604756175	-5.333726134678506	-0.09309108244981043	0	0	0	0	0	0	33.67603663383208	-33.67603663383217	4.529042094778534	78.8707408056508	85.47095815794997	0	0	33.67603663383208	-33.67603663383217	4.529042094778534	78.8707408056508	85.47095815786268	0	0
10.65999999999986	-5.465563742907919	4.241194728573694	105.0163873585132	0	0.9399999999999999	0	14.60390041382284	-6.679900773419265	-13.76104089303694	0.8312124483824992	0.01450739400783803	0	0	0	-6.601274750923371	6.573483499592702	-0.8500041379144939	-3.985625141114462	-0.06956228146271097	0	0	0	0	0	0	33.67871811550103	-33.67871811550111	4.529264711179485	78.87364991240439	85.4707355415603	0	0	33.67871811550103	-33.67871811550111	4.529264711179485	78.87364991240439	85.4707355414731	0	0
10.67999999999986	-5.943871487337224	3.853392372561836	105.3965771719017	0	0.9399999999999999	0	14.88832169079898	-7.290021103596796	-13.74923902827042	1.601461572598712	0.02795077728601373	0	0	0	-7.51237898050105	6.99751232545479	-0.3490816933173088	-3.825162869348559	-0.06676168649516603	0	0	0	0	0	0	33.68108649724604	-33.68108649724612	4.529461399316865	78.8762201967037	85.4705388534329	0	0	33.68108649724604	-33.68108649724612	4.529461399316865	78.8762201967037	85.47053885334573	0	0
10.69999999999986	-6.399189705639227	3.526942060273893	105.6993885264166	0	0.9399999999999999	0	16.56199728556369	-6.861236991612798	-10.45208104425887	3.516937774584778	0.06138214375426652	0	0	0	-7.792182113787999	7.623453960315745	0.384964842822285	-2.95052932798165	-0.05149645144993546	0	0	0	0	0	0	33.72797842305189	-33.72797842305198	4.532808332366485	78.91987106496485	85.46719192054846	0	0	33.72797842305189	-33.72797842305198	4.532808332366485	78.91987106496485	85.46719192046193	0	0
10.71999999999986	-6.741031228411557	3.421804115773393	106.0707461570792	0	0.9399999999999999	0	17.81569713445426	-6.782134063162037	-8.269665489795026	6.53222900358559	0.114008903606837	0	0	0	-8.254349454619035	7.976687567563192	1.315175168652935	-1.856438141171753	-0.03240095792305039	0	0	0	0	0	0	33.80268879467	-33.80268879467009	4.538122368227968	78.98917299175314	85.46187788494912	0	0	33.80268879467	-33.80268879467009	4.538122368227968	78.98917299175314	85.4618778848636	0	0
10.73999999999986	-6.795637052373241	3.386405076954961	106.5316521629348	0	0.9399999999999999	0	18.29185042819106	-6.118551522137669	-6.579284193277577	6.433673454529235	0.1122887847796928	0	0	0	-8.279248762275058	7.97404017887985	1.776284033313229	-1.824716097727696	-0.03184730381949091	0	0	0	0	0	0	33.8190313961545	-33.81903139615459	4.539318559428988	79.00477864165626	85.46068169380737	0	0	33.8190313961545	-33.81903139615459	4.539318559428988	79.00477864165626	85.46068169372208	0	0
10.75999999999986	-6.621883727418341	3.449986429294489	106.8307229199122	0	0.9399999999999999	0	15.43756935399083	-7.207578786959289	-10.81132752615567	7.326619903561054	0.1278736403592898	0	0	0	-9.127998786972581	7.422638078979448	1.516758818601245	0.7874255545026869	0.01374316854041395	0	0	0	0	0	0	33.86952457776469	-33.86952457776477	4.542912963661355	79.05165447544161	85.45708728975235	0	0	33.86952457776469	-33.86952457776477	4.542912963661355	79.05165447544161	85.4570872896677	0	0
10.77999999999986	-5.407108462509369	3.997544147917685	107.0611903646265	0	0.9399999999999999	0	12.84353216234445	-7.398064276083957	-16.01644842878233	6.589853736477317	0.1150146449263799	0	0	0	-9.508543416824525	5.678850808686634	0.5642907104263479	0.9163218613739526	0.01599283348897852	0	0	0	0	0	0	33.90002091312475	-33.90002091312483	4.545109911155635	79.08030961223348	85.45489034236667	0	0	33.90002091312475	-33.90002091312483	4.545109911155635	79.08030961223348	85.45489034228238	0	0
10.79999999999986	-4.869598271841562	4.240294625142829	106.9036612885877	0	0.9399999999999999	0	15.08223213247295	-6.342331898082394	-10.44450559812997	10.36696095438069	0.1809376020796367	0	0	0	-8.785235589900013	4.311100648916552	-1.851287274854709	5.302181573832977	0.09254052600196026	0	0	0	0	0	0	33.94435021383796	-33.94435021383804	4.548275287202899	79.1215916542218	85.45172496647567	0	0	33.94435021383796	-33.94435021383804	4.548275287202899	79.1215916542218	85.45172496639199	0	0
10.81999999999986	-3.478504161380673	5.050287459099717	106.1844437553543	0	0.9399999999999999	0	16.8009534866919	-3.643578311523906	-6.911811885613361	12.69364697337502	0.221545933771207	0	0	0	-9.1973058157647	2.627747985335105	-2.929028730971786	7.745745733642154	0.1351887660743593	0	0	0	0	0	0	34.00898216374393	-34.00898216374401	4.552806870029378	79.18067712604261	85.44719338387209	0	0	34.00898216374393	-34.00898216374401	4.552806870029378	79.18067712604261	85.4471933837893	0	0
10.83999999999986	-3.046460751667061	5.644900450655315	105.9809538997804	0	0.9399999999999999	0	15.19762246328844	-3.534298109507772	-8.436590717866833	12.9728024424997	0.226418115832382	0	0	0	-6.52863772270128	1.021739986990901	-4.550506399414054	14.09812492274465	0.2460586982593654	0	0	0	0	0	0	34.21272676694398	-34.21272676694407	4.566774311162781	79.36273829000608	85.43322594342301	0	0	34.21272676694398	-34.21272676694407	4.566774311162781	79.36273829000608	85.43322594334279	0	0
10.85999999999986	-2.899062341510528	5.926409377676636	106.0066928464538	0	0.9399999999999999	0	12.91561685416909	-4.104593315658621	-10.20006745342553	12.38566987035668	0.2161707193027833	0	0	0	-4.554689756670794	-0.4597831145805945	-5.324620265224946	19.78754290457976	0.3453577745645589	0	0	0	0	0	0	34.35458525325183	-34.35458525325191	4.576405969963857	79.48826965561209	85.42359428509293	0	0	34.35458525325183	-34.35458525325191	4.576405969963857	79.48826965561209	85.42359428501462	0	0
10.87999999999986	-2.735146696951595	6.47831721433674	106.4092227133701	0	0.9399999999999999	0	9.541455478327144	-3.879971020027412	-12.27591247156564	10.54570602288631	0.1840572920467626	0	0	0	-2.812564846514096	-2.223842203185552	-5.426638518342876	28.98198973213103	0.5058311446048759	0	0	0	0	0	0	34.3615641488099	-34.36156414880998	4.576959330304345	79.49549349709497	85.42304092478012	0	0	34.3615641488099	-34.36156414880998	4.576959330304345	79.49549349709497	85.42304092470195	0	0
10.89999999999986	-2.51829642380344	7.222617448051281	106.9537714443774	0	0.9399999999999999	0	7.10954831568024	-2.186561055454156	-13.18414018466719	9.550928572180714	0.1666951502073544	0	0	0	-1.218438835493835	-3.361986308688714	-5.808358020330112	31.37235739769692	0.5475509307022113	0	0	0	0	0	0	34.40803634698045	-34.40803634698054	4.580108497651667	79.53653607565909	85.41989175758673	0	0	34.40803634698045	-34.40803634698054	4.580108497651667	79.53653607565909	85.41989175750921	0	0
